<mxfile host="www.draw.io" modified="2020-03-05T07:40:32.429Z" agent="Mozilla/5.0 (Windows NT 10.0; Win64; x64) AppleWebKit/537.36 (KHTML, like Gecko) Chrome/80.0.3987.122 Safari/537.36" etag="7oCMEA1ilKIihRDCLIav" version="12.7.9" type="github">
  <diagram id="iT_VY72Czb0_Q7tnW9AB" name="Page-1">
    <mxGraphModel dx="780" dy="1144" grid="1" gridSize="10" guides="1" tooltips="1" connect="1" arrows="1" fold="1" page="1" pageScale="1" pageWidth="850" pageHeight="1100" math="0" shadow="0">
      <root>
        <mxCell id="0" />
        <mxCell id="1" parent="0" />
        <mxCell id="myOOptKJQaKHz7D4kMaX-1" value="Customer" style="swimlane;fontStyle=0;childLayout=stackLayout;horizontal=1;startSize=26;fillColor=none;horizontalStack=0;resizeParent=1;resizeParentMax=0;resizeLast=0;collapsible=1;marginBottom=0;" vertex="1" parent="1">
          <mxGeometry x="80" y="200" width="140" height="52" as="geometry" />
        </mxCell>
        <mxCell id="myOOptKJQaKHz7D4kMaX-11" value="Card" style="swimlane;fontStyle=0;childLayout=stackLayout;horizontal=1;startSize=26;fillColor=none;horizontalStack=0;resizeParent=1;resizeParentMax=0;resizeLast=0;collapsible=1;marginBottom=0;" vertex="1" parent="1">
          <mxGeometry x="350" y="200" width="140" height="52" as="geometry" />
        </mxCell>
        <mxCell id="myOOptKJQaKHz7D4kMaX-12" value="+ PIN: INT" style="text;strokeColor=none;fillColor=none;align=left;verticalAlign=top;spacingLeft=4;spacingRight=4;overflow=hidden;rotatable=0;points=[[0,0.5],[1,0.5]];portConstraint=eastwest;" vertex="1" parent="myOOptKJQaKHz7D4kMaX-11">
          <mxGeometry y="26" width="140" height="26" as="geometry" />
        </mxCell>
        <mxCell id="myOOptKJQaKHz7D4kMaX-19" value="Account" style="swimlane;fontStyle=0;childLayout=stackLayout;horizontal=1;startSize=26;fillColor=none;horizontalStack=0;resizeParent=1;resizeParentMax=0;resizeLast=0;collapsible=1;marginBottom=0;" vertex="1" parent="1">
          <mxGeometry x="350" y="330" width="140" height="52" as="geometry" />
        </mxCell>
        <mxCell id="myOOptKJQaKHz7D4kMaX-20" value="- Balance: INT" style="text;strokeColor=none;fillColor=none;align=left;verticalAlign=top;spacingLeft=4;spacingRight=4;overflow=hidden;rotatable=0;points=[[0,0.5],[1,0.5]];portConstraint=eastwest;" vertex="1" parent="myOOptKJQaKHz7D4kMaX-19">
          <mxGeometry y="26" width="140" height="26" as="geometry" />
        </mxCell>
        <mxCell id="myOOptKJQaKHz7D4kMaX-23" value="Bank" style="swimlane;fontStyle=0;childLayout=stackLayout;horizontal=1;startSize=26;fillColor=none;horizontalStack=0;resizeParent=1;resizeParentMax=0;resizeLast=0;collapsible=1;marginBottom=0;" vertex="1" parent="1">
          <mxGeometry x="80" y="530" width="140" height="52" as="geometry" />
        </mxCell>
        <mxCell id="myOOptKJQaKHz7D4kMaX-28" value="" style="endArrow=open;endFill=1;endSize=12;html=1;entryX=1;entryY=0.5;entryDx=0;entryDy=0;exitX=0;exitY=0.5;exitDx=0;exitDy=0;" edge="1" parent="1" source="myOOptKJQaKHz7D4kMaX-11">
          <mxGeometry width="160" relative="1" as="geometry">
            <mxPoint x="310" y="225" as="sourcePoint" />
            <mxPoint x="220" y="224.51" as="targetPoint" />
          </mxGeometry>
        </mxCell>
        <mxCell id="myOOptKJQaKHz7D4kMaX-29" value="" style="endArrow=open;endFill=1;endSize=12;html=1;exitX=0.5;exitY=0;exitDx=0;exitDy=0;entryX=0.5;entryY=1.077;entryDx=0;entryDy=0;entryPerimeter=0;" edge="1" parent="1" source="myOOptKJQaKHz7D4kMaX-19" target="myOOptKJQaKHz7D4kMaX-12">
          <mxGeometry width="160" relative="1" as="geometry">
            <mxPoint x="240" y="460" as="sourcePoint" />
            <mxPoint x="390" y="290" as="targetPoint" />
          </mxGeometry>
        </mxCell>
        <mxCell id="myOOptKJQaKHz7D4kMaX-30" value="" style="endArrow=open;endFill=1;endSize=12;html=1;" edge="1" parent="1">
          <mxGeometry width="160" relative="1" as="geometry">
            <mxPoint x="149.5" y="312" as="sourcePoint" />
            <mxPoint x="149.5" y="252" as="targetPoint" />
          </mxGeometry>
        </mxCell>
        <mxCell id="myOOptKJQaKHz7D4kMaX-31" value="" style="endArrow=open;endFill=1;endSize=12;html=1;exitX=0.5;exitY=0;exitDx=0;exitDy=0;entryX=0.506;entryY=1;entryDx=0;entryDy=0;entryPerimeter=0;" edge="1" parent="1" source="myOOptKJQaKHz7D4kMaX-23" target="myOOptKJQaKHz7D4kMaX-52">
          <mxGeometry width="160" relative="1" as="geometry">
            <mxPoint x="149.5" y="414" as="sourcePoint" />
            <mxPoint x="130" y="480" as="targetPoint" />
          </mxGeometry>
        </mxCell>
        <mxCell id="myOOptKJQaKHz7D4kMaX-32" value="1" style="text;html=1;align=center;verticalAlign=middle;resizable=0;points=[];autosize=1;" vertex="1" parent="1">
          <mxGeometry x="220" y="200" width="20" height="20" as="geometry" />
        </mxCell>
        <mxCell id="myOOptKJQaKHz7D4kMaX-33" value="*" style="text;html=1;align=center;verticalAlign=middle;resizable=0;points=[];autosize=1;" vertex="1" parent="1">
          <mxGeometry x="330" y="210" width="20" height="20" as="geometry" />
        </mxCell>
        <mxCell id="myOOptKJQaKHz7D4kMaX-34" value="1" style="text;html=1;align=center;verticalAlign=middle;resizable=0;points=[];autosize=1;" vertex="1" parent="1">
          <mxGeometry x="425" y="252" width="20" height="20" as="geometry" />
        </mxCell>
        <mxCell id="myOOptKJQaKHz7D4kMaX-35" value="*" style="text;html=1;align=center;verticalAlign=middle;resizable=0;points=[];autosize=1;" vertex="1" parent="1">
          <mxGeometry x="425" y="310" width="20" height="20" as="geometry" />
        </mxCell>
        <mxCell id="myOOptKJQaKHz7D4kMaX-36" value="1" style="text;html=1;align=center;verticalAlign=middle;resizable=0;points=[];autosize=1;" vertex="1" parent="1">
          <mxGeometry x="150" y="254" width="20" height="20" as="geometry" />
        </mxCell>
        <mxCell id="myOOptKJQaKHz7D4kMaX-37" value="1" style="text;html=1;align=center;verticalAlign=middle;resizable=0;points=[];autosize=1;" vertex="1" parent="1">
          <mxGeometry x="150" y="292" width="20" height="20" as="geometry" />
        </mxCell>
        <mxCell id="myOOptKJQaKHz7D4kMaX-38" value="1" style="text;html=1;align=center;verticalAlign=middle;resizable=0;points=[];autosize=1;" vertex="1" parent="1">
          <mxGeometry x="150" y="460" width="20" height="20" as="geometry" />
        </mxCell>
        <mxCell id="myOOptKJQaKHz7D4kMaX-39" value="1" style="text;html=1;align=center;verticalAlign=middle;resizable=0;points=[];autosize=1;" vertex="1" parent="1">
          <mxGeometry x="150" y="510" width="20" height="20" as="geometry" />
        </mxCell>
        <mxCell id="myOOptKJQaKHz7D4kMaX-49" value="ATM" style="swimlane;fontStyle=1;align=center;verticalAlign=top;childLayout=stackLayout;horizontal=1;startSize=26;horizontalStack=0;resizeParent=1;resizeParentMax=0;resizeLast=0;collapsible=1;marginBottom=0;" vertex="1" parent="1">
          <mxGeometry x="70" y="310" width="160" height="150" as="geometry" />
        </mxCell>
        <mxCell id="myOOptKJQaKHz7D4kMaX-50" value="+ numOfTries: INT&#xa;+ pinAccepted: Boolean" style="text;strokeColor=none;fillColor=none;align=left;verticalAlign=top;spacingLeft=4;spacingRight=4;overflow=hidden;rotatable=0;points=[[0,0.5],[1,0.5]];portConstraint=eastwest;" vertex="1" parent="myOOptKJQaKHz7D4kMaX-49">
          <mxGeometry y="26" width="160" height="44" as="geometry" />
        </mxCell>
        <mxCell id="myOOptKJQaKHz7D4kMaX-51" value="" style="line;strokeWidth=1;fillColor=none;align=left;verticalAlign=middle;spacingTop=-1;spacingLeft=3;spacingRight=3;rotatable=0;labelPosition=right;points=[];portConstraint=eastwest;" vertex="1" parent="myOOptKJQaKHz7D4kMaX-49">
          <mxGeometry y="70" width="160" height="8" as="geometry" />
        </mxCell>
        <mxCell id="myOOptKJQaKHz7D4kMaX-52" value="+ identify(card:Card)&#xa;+ authenticate(pin:INT):result&#xa;+ withdraw(amount:INT)" style="text;strokeColor=none;fillColor=none;align=left;verticalAlign=top;spacingLeft=4;spacingRight=4;overflow=hidden;rotatable=0;points=[[0,0.5],[1,0.5]];portConstraint=eastwest;" vertex="1" parent="myOOptKJQaKHz7D4kMaX-49">
          <mxGeometry y="78" width="160" height="72" as="geometry" />
        </mxCell>
      </root>
    </mxGraphModel>
  </diagram>
</mxfile>
